<svg xmlns="http://www.w3.org/2000/svg" xmlns:xlink="http://www.w3.org/1999/xlink" width="150" zoomAndPan="magnify" viewBox="0 0 112.5 112.499997" height="150" preserveAspectRatio="xMidYMid meet" version="1.0"><defs><g/></defs><g fill="#ffffff" fill-opacity="1"><g transform="translate(6.976806, 53.910403)"><g><path d="M 4.71875 -0.890625 L 0.390625 -2.796875 L 0.390625 -3.421875 L 4.71875 -5.59375 L 4.71875 -4.546875 L 1.734375 -3.15625 L 4.71875 -1.9375 Z M 4.71875 -0.890625 "/></g></g><g transform="translate(12.091281, 53.910403)"><g><path d="M 1.984375 -6.78125 L 2.953125 -6.78125 L 2.953125 2.03125 L 1.984375 2.03125 Z M 1.984375 -6.78125 "/></g></g><g transform="translate(17.026378, 53.910403)"><g><path d="M 3.234375 -3.59375 L 5.765625 -3.59375 L 5.765625 -0.28125 C 5.359375 -0.144531 4.972656 -0.0507812 4.609375 0 C 4.242188 0.0625 3.875 0.09375 3.5 0.09375 C 2.53125 0.09375 1.789062 -0.1875 1.28125 -0.75 C 0.769531 -1.320312 0.515625 -2.140625 0.515625 -3.203125 C 0.515625 -4.234375 0.8125 -5.035156 1.40625 -5.609375 C 2 -6.191406 2.816406 -6.484375 3.859375 -6.484375 C 4.515625 -6.484375 5.144531 -6.351562 5.75 -6.09375 L 5.3125 -5 C 4.84375 -5.238281 4.351562 -5.359375 3.84375 -5.359375 C 3.257812 -5.359375 2.789062 -5.160156 2.4375 -4.765625 C 2.09375 -4.367188 1.921875 -3.835938 1.921875 -3.171875 C 1.921875 -2.484375 2.0625 -1.957031 2.34375 -1.59375 C 2.625 -1.226562 3.035156 -1.046875 3.578125 -1.046875 C 3.859375 -1.046875 4.144531 -1.070312 4.4375 -1.125 L 4.4375 -2.46875 L 3.234375 -2.46875 Z M 3.234375 -3.59375 "/></g></g><g transform="translate(23.514631, 53.910403)"><g><path d="M 2.71875 -4.03125 C 2.4375 -4.03125 2.210938 -3.941406 2.046875 -3.765625 C 1.890625 -3.585938 1.800781 -3.332031 1.78125 -3 L 3.65625 -3 C 3.644531 -3.332031 3.554688 -3.585938 3.390625 -3.765625 C 3.222656 -3.941406 3 -4.03125 2.71875 -4.03125 Z M 2.90625 0.09375 C 2.125 0.09375 1.507812 -0.125 1.0625 -0.5625 C 0.625 -1 0.40625 -1.613281 0.40625 -2.40625 C 0.40625 -3.226562 0.609375 -3.863281 1.015625 -4.3125 C 1.421875 -4.757812 1.988281 -4.984375 2.71875 -4.984375 C 3.40625 -4.984375 3.941406 -4.785156 4.328125 -4.390625 C 4.710938 -3.992188 4.90625 -3.453125 4.90625 -2.765625 L 4.90625 -2.109375 L 1.75 -2.109375 C 1.769531 -1.734375 1.882812 -1.4375 2.09375 -1.21875 C 2.300781 -1.007812 2.59375 -0.90625 2.96875 -0.90625 C 3.269531 -0.90625 3.550781 -0.9375 3.8125 -1 C 4.070312 -1.0625 4.34375 -1.160156 4.625 -1.296875 L 4.625 -0.265625 C 4.394531 -0.140625 4.144531 -0.0507812 3.875 0 C 3.613281 0.0625 3.289062 0.09375 2.90625 0.09375 Z M 2.90625 0.09375 "/></g></g><g transform="translate(28.808485, 53.910403)"><g><path d="M 5.21875 0 L 3.875 0 L 3.875 -2.859375 C 3.875 -3.210938 3.8125 -3.472656 3.6875 -3.640625 C 3.5625 -3.816406 3.363281 -3.90625 3.09375 -3.90625 C 2.71875 -3.90625 2.445312 -3.78125 2.28125 -3.53125 C 2.113281 -3.289062 2.03125 -2.878906 2.03125 -2.296875 L 2.03125 0 L 0.703125 0 L 0.703125 -4.890625 L 1.71875 -4.890625 L 1.890625 -4.265625 L 1.96875 -4.265625 C 2.113281 -4.492188 2.316406 -4.671875 2.578125 -4.796875 C 2.847656 -4.921875 3.144531 -4.984375 3.46875 -4.984375 C 4.039062 -4.984375 4.472656 -4.828125 4.765625 -4.515625 C 5.066406 -4.210938 5.21875 -3.769531 5.21875 -3.1875 Z M 5.21875 0 "/></g></g><g transform="translate(34.697351, 53.910403)"><g><path d="M 1.765625 -2.453125 C 1.765625 -1.972656 1.84375 -1.609375 2 -1.359375 C 2.15625 -1.109375 2.414062 -0.984375 2.78125 -0.984375 C 3.132812 -0.984375 3.390625 -1.101562 3.546875 -1.34375 C 3.703125 -1.59375 3.78125 -1.960938 3.78125 -2.453125 C 3.78125 -2.929688 3.703125 -3.289062 3.546875 -3.53125 C 3.390625 -3.78125 3.128906 -3.90625 2.765625 -3.90625 C 2.410156 -3.90625 2.15625 -3.785156 2 -3.546875 C 1.84375 -3.304688 1.765625 -2.941406 1.765625 -2.453125 Z M 5.140625 -2.453125 C 5.140625 -1.660156 4.925781 -1.035156 4.5 -0.578125 C 4.082031 -0.128906 3.503906 0.09375 2.765625 0.09375 C 2.285156 0.09375 1.867188 -0.0078125 1.515625 -0.21875 C 1.160156 -0.425781 0.882812 -0.722656 0.6875 -1.109375 C 0.5 -1.492188 0.40625 -1.941406 0.40625 -2.453125 C 0.40625 -3.253906 0.613281 -3.875 1.03125 -4.3125 C 1.445312 -4.757812 2.03125 -4.984375 2.78125 -4.984375 C 3.25 -4.984375 3.660156 -4.878906 4.015625 -4.671875 C 4.378906 -4.472656 4.65625 -4.179688 4.84375 -3.796875 C 5.039062 -3.410156 5.140625 -2.960938 5.140625 -2.453125 Z M 5.140625 -2.453125 "/></g></g><g transform="translate(40.24496, 53.910403)"><g><path d="M 4.15625 0 L 3.984375 -0.625 L 3.90625 -0.625 C 3.769531 -0.394531 3.566406 -0.21875 3.296875 -0.09375 C 3.035156 0.03125 2.738281 0.09375 2.40625 0.09375 C 1.832031 0.09375 1.398438 -0.0546875 1.109375 -0.359375 C 0.816406 -0.671875 0.671875 -1.117188 0.671875 -1.703125 L 0.671875 -4.890625 L 2 -4.890625 L 2 -2.03125 C 2 -1.675781 2.0625 -1.410156 2.1875 -1.234375 C 2.3125 -1.054688 2.515625 -0.96875 2.796875 -0.96875 C 3.171875 -0.96875 3.4375 -1.09375 3.59375 -1.34375 C 3.757812 -1.59375 3.84375 -2.007812 3.84375 -2.59375 L 3.84375 -4.890625 L 5.1875 -4.890625 L 5.1875 0 Z M 4.15625 0 "/></g></g><g transform="translate(46.133826, 53.910403)"><g><path d="M 2.25 0.09375 C 1.675781 0.09375 1.222656 -0.128906 0.890625 -0.578125 C 0.566406 -1.023438 0.40625 -1.644531 0.40625 -2.4375 C 0.40625 -3.238281 0.570312 -3.863281 0.90625 -4.3125 C 1.238281 -4.757812 1.695312 -4.984375 2.28125 -4.984375 C 2.894531 -4.984375 3.363281 -4.742188 3.6875 -4.265625 L 3.734375 -4.265625 C 3.671875 -4.628906 3.640625 -4.953125 3.640625 -5.234375 L 3.640625 -6.796875 L 4.96875 -6.796875 L 4.96875 0 L 3.953125 0 L 3.6875 -0.640625 L 3.640625 -0.640625 C 3.328125 -0.148438 2.863281 0.09375 2.25 0.09375 Z M 2.71875 -0.96875 C 3.050781 -0.96875 3.296875 -1.066406 3.453125 -1.265625 C 3.617188 -1.460938 3.707031 -1.800781 3.71875 -2.28125 L 3.71875 -2.421875 C 3.71875 -2.953125 3.632812 -3.328125 3.46875 -3.546875 C 3.3125 -3.773438 3.050781 -3.890625 2.6875 -3.890625 C 2.394531 -3.890625 2.164062 -3.765625 2 -3.515625 C 1.832031 -3.265625 1.75 -2.898438 1.75 -2.421875 C 1.75 -1.941406 1.832031 -1.578125 2 -1.328125 C 2.164062 -1.085938 2.40625 -0.96875 2.71875 -0.96875 Z M 2.71875 -0.96875 "/></g></g><g transform="translate(51.803938, 53.910403)"><g><path d="M 3.515625 -5.359375 C 3.003906 -5.359375 2.609375 -5.164062 2.328125 -4.78125 C 2.054688 -4.394531 1.921875 -3.859375 1.921875 -3.171875 C 1.921875 -1.753906 2.453125 -1.046875 3.515625 -1.046875 C 3.960938 -1.046875 4.507812 -1.15625 5.15625 -1.375 L 5.15625 -0.234375 C 4.625 -0.015625 4.035156 0.09375 3.390625 0.09375 C 2.460938 0.09375 1.75 -0.1875 1.25 -0.75 C 0.757812 -1.320312 0.515625 -2.132812 0.515625 -3.1875 C 0.515625 -3.851562 0.632812 -4.4375 0.875 -4.9375 C 1.125 -5.4375 1.472656 -5.816406 1.921875 -6.078125 C 2.378906 -6.347656 2.910156 -6.484375 3.515625 -6.484375 C 4.140625 -6.484375 4.765625 -6.332031 5.390625 -6.03125 L 4.953125 -4.9375 C 4.710938 -5.050781 4.472656 -5.148438 4.234375 -5.234375 C 3.992188 -5.316406 3.753906 -5.359375 3.515625 -5.359375 Z M 3.515625 -5.359375 "/></g></g><g transform="translate(57.513425, 53.910403)"><g><path d="M 1.765625 -2.453125 C 1.765625 -1.972656 1.84375 -1.609375 2 -1.359375 C 2.15625 -1.109375 2.414062 -0.984375 2.78125 -0.984375 C 3.132812 -0.984375 3.390625 -1.101562 3.546875 -1.34375 C 3.703125 -1.59375 3.78125 -1.960938 3.78125 -2.453125 C 3.78125 -2.929688 3.703125 -3.289062 3.546875 -3.53125 C 3.390625 -3.78125 3.128906 -3.90625 2.765625 -3.90625 C 2.410156 -3.90625 2.15625 -3.785156 2 -3.546875 C 1.84375 -3.304688 1.765625 -2.941406 1.765625 -2.453125 Z M 5.140625 -2.453125 C 5.140625 -1.660156 4.925781 -1.035156 4.5 -0.578125 C 4.082031 -0.128906 3.503906 0.09375 2.765625 0.09375 C 2.285156 0.09375 1.867188 -0.0078125 1.515625 -0.21875 C 1.160156 -0.425781 0.882812 -0.722656 0.6875 -1.109375 C 0.5 -1.492188 0.40625 -1.941406 0.40625 -2.453125 C 0.40625 -3.253906 0.613281 -3.875 1.03125 -4.3125 C 1.445312 -4.757812 2.03125 -4.984375 2.78125 -4.984375 C 3.25 -4.984375 3.660156 -4.878906 4.015625 -4.671875 C 4.378906 -4.472656 4.65625 -4.179688 4.84375 -3.796875 C 5.039062 -3.410156 5.140625 -2.960938 5.140625 -2.453125 Z M 5.140625 -2.453125 "/></g></g><g transform="translate(63.061035, 53.910403)"><g><path d="M 2.25 0.09375 C 1.675781 0.09375 1.222656 -0.128906 0.890625 -0.578125 C 0.566406 -1.023438 0.40625 -1.644531 0.40625 -2.4375 C 0.40625 -3.238281 0.570312 -3.863281 0.90625 -4.3125 C 1.238281 -4.757812 1.695312 -4.984375 2.28125 -4.984375 C 2.894531 -4.984375 3.363281 -4.742188 3.6875 -4.265625 L 3.734375 -4.265625 C 3.671875 -4.628906 3.640625 -4.953125 3.640625 -5.234375 L 3.640625 -6.796875 L 4.96875 -6.796875 L 4.96875 0 L 3.953125 0 L 3.6875 -0.640625 L 3.640625 -0.640625 C 3.328125 -0.148438 2.863281 0.09375 2.25 0.09375 Z M 2.71875 -0.96875 C 3.050781 -0.96875 3.296875 -1.066406 3.453125 -1.265625 C 3.617188 -1.460938 3.707031 -1.800781 3.71875 -2.28125 L 3.71875 -2.421875 C 3.71875 -2.953125 3.632812 -3.328125 3.46875 -3.546875 C 3.3125 -3.773438 3.050781 -3.890625 2.6875 -3.890625 C 2.394531 -3.890625 2.164062 -3.765625 2 -3.515625 C 1.832031 -3.265625 1.75 -2.898438 1.75 -2.421875 C 1.75 -1.941406 1.832031 -1.578125 2 -1.328125 C 2.164062 -1.085938 2.40625 -0.96875 2.71875 -0.96875 Z M 2.71875 -0.96875 "/></g></g><g transform="translate(68.731146, 53.910403)"><g><path d="M 2.71875 -4.03125 C 2.4375 -4.03125 2.210938 -3.941406 2.046875 -3.765625 C 1.890625 -3.585938 1.800781 -3.332031 1.78125 -3 L 3.65625 -3 C 3.644531 -3.332031 3.554688 -3.585938 3.390625 -3.765625 C 3.222656 -3.941406 3 -4.03125 2.71875 -4.03125 Z M 2.90625 0.09375 C 2.125 0.09375 1.507812 -0.125 1.0625 -0.5625 C 0.625 -1 0.40625 -1.613281 0.40625 -2.40625 C 0.40625 -3.226562 0.609375 -3.863281 1.015625 -4.3125 C 1.421875 -4.757812 1.988281 -4.984375 2.71875 -4.984375 C 3.40625 -4.984375 3.941406 -4.785156 4.328125 -4.390625 C 4.710938 -3.992188 4.90625 -3.453125 4.90625 -2.765625 L 4.90625 -2.109375 L 1.75 -2.109375 C 1.769531 -1.734375 1.882812 -1.4375 2.09375 -1.21875 C 2.300781 -1.007812 2.59375 -0.90625 2.96875 -0.90625 C 3.269531 -0.90625 3.550781 -0.9375 3.8125 -1 C 4.070312 -1.0625 4.34375 -1.160156 4.625 -1.296875 L 4.625 -0.265625 C 4.394531 -0.140625 4.144531 -0.0507812 3.875 0 C 3.613281 0.0625 3.289062 0.09375 2.90625 0.09375 Z M 2.90625 0.09375 "/></g></g><g transform="translate(74.025, 53.910403)"><g/></g><g transform="translate(76.352546, 53.910403)"><g><path d="M 4.578125 -1.78125 C 4.578125 -1.195312 4.367188 -0.738281 3.953125 -0.40625 C 3.535156 -0.0703125 2.957031 0.09375 2.21875 0.09375 C 1.539062 0.09375 0.9375 -0.0351562 0.40625 -0.296875 L 0.40625 -1.5625 C 0.84375 -1.363281 1.207031 -1.222656 1.5 -1.140625 C 1.800781 -1.066406 2.078125 -1.03125 2.328125 -1.03125 C 2.617188 -1.03125 2.84375 -1.085938 3 -1.203125 C 3.164062 -1.316406 3.25 -1.484375 3.25 -1.703125 C 3.25 -1.828125 3.210938 -1.9375 3.140625 -2.03125 C 3.066406 -2.132812 2.960938 -2.234375 2.828125 -2.328125 C 2.691406 -2.421875 2.414062 -2.566406 2 -2.765625 C 1.613281 -2.941406 1.320312 -3.113281 1.125 -3.28125 C 0.925781 -3.457031 0.769531 -3.65625 0.65625 -3.875 C 0.539062 -4.101562 0.484375 -4.367188 0.484375 -4.671875 C 0.484375 -5.234375 0.675781 -5.675781 1.0625 -6 C 1.445312 -6.320312 1.976562 -6.484375 2.65625 -6.484375 C 2.976562 -6.484375 3.289062 -6.441406 3.59375 -6.359375 C 3.894531 -6.285156 4.210938 -6.175781 4.546875 -6.03125 L 4.109375 -4.984375 C 3.765625 -5.117188 3.476562 -5.210938 3.25 -5.265625 C 3.03125 -5.328125 2.816406 -5.359375 2.609375 -5.359375 C 2.347656 -5.359375 2.148438 -5.296875 2.015625 -5.171875 C 1.878906 -5.054688 1.8125 -4.898438 1.8125 -4.703125 C 1.8125 -4.585938 1.835938 -4.484375 1.890625 -4.390625 C 1.941406 -4.304688 2.03125 -4.222656 2.15625 -4.140625 C 2.28125 -4.054688 2.566406 -3.90625 3.015625 -3.6875 C 3.609375 -3.40625 4.015625 -3.117188 4.234375 -2.828125 C 4.460938 -2.546875 4.578125 -2.195312 4.578125 -1.78125 Z M 4.578125 -1.78125 "/></g></g><g transform="translate(81.287643, 53.910403)"><g><path d="M 2.765625 -0.96875 C 2.992188 -0.96875 3.269531 -1.019531 3.59375 -1.125 L 3.59375 -0.140625 C 3.257812 0.015625 2.851562 0.09375 2.375 0.09375 C 1.84375 0.09375 1.453125 -0.0390625 1.203125 -0.3125 C 0.960938 -0.582031 0.84375 -0.988281 0.84375 -1.53125 L 0.84375 -3.890625 L 0.203125 -3.890625 L 0.203125 -4.453125 L 0.9375 -4.890625 L 1.328125 -5.921875 L 2.171875 -5.921875 L 2.171875 -4.890625 L 3.546875 -4.890625 L 3.546875 -3.890625 L 2.171875 -3.890625 L 2.171875 -1.53125 C 2.171875 -1.34375 2.222656 -1.203125 2.328125 -1.109375 C 2.441406 -1.015625 2.585938 -0.96875 2.765625 -0.96875 Z M 2.765625 -0.96875 "/></g></g><g transform="translate(85.177095, 53.910403)"><g><path d="M 4.15625 0 L 3.984375 -0.625 L 3.90625 -0.625 C 3.769531 -0.394531 3.566406 -0.21875 3.296875 -0.09375 C 3.035156 0.03125 2.738281 0.09375 2.40625 0.09375 C 1.832031 0.09375 1.398438 -0.0546875 1.109375 -0.359375 C 0.816406 -0.671875 0.671875 -1.117188 0.671875 -1.703125 L 0.671875 -4.890625 L 2 -4.890625 L 2 -2.03125 C 2 -1.675781 2.0625 -1.410156 2.1875 -1.234375 C 2.3125 -1.054688 2.515625 -0.96875 2.796875 -0.96875 C 3.171875 -0.96875 3.4375 -1.09375 3.59375 -1.34375 C 3.757812 -1.59375 3.84375 -2.007812 3.84375 -2.59375 L 3.84375 -4.890625 L 5.1875 -4.890625 L 5.1875 0 Z M 4.15625 0 "/></g></g><g transform="translate(91.065961, 53.910403)"><g><path d="M 2.25 0.09375 C 1.675781 0.09375 1.222656 -0.128906 0.890625 -0.578125 C 0.566406 -1.023438 0.40625 -1.644531 0.40625 -2.4375 C 0.40625 -3.238281 0.570312 -3.863281 0.90625 -4.3125 C 1.238281 -4.757812 1.695312 -4.984375 2.28125 -4.984375 C 2.894531 -4.984375 3.363281 -4.742188 3.6875 -4.265625 L 3.734375 -4.265625 C 3.671875 -4.628906 3.640625 -4.953125 3.640625 -5.234375 L 3.640625 -6.796875 L 4.96875 -6.796875 L 4.96875 0 L 3.953125 0 L 3.6875 -0.640625 L 3.640625 -0.640625 C 3.328125 -0.148438 2.863281 0.09375 2.25 0.09375 Z M 2.71875 -0.96875 C 3.050781 -0.96875 3.296875 -1.066406 3.453125 -1.265625 C 3.617188 -1.460938 3.707031 -1.800781 3.71875 -2.28125 L 3.71875 -2.421875 C 3.71875 -2.953125 3.632812 -3.328125 3.46875 -3.546875 C 3.3125 -3.773438 3.050781 -3.890625 2.6875 -3.890625 C 2.394531 -3.890625 2.164062 -3.765625 2 -3.515625 C 1.832031 -3.265625 1.75 -2.898438 1.75 -2.421875 C 1.75 -1.941406 1.832031 -1.578125 2 -1.328125 C 2.164062 -1.085938 2.40625 -0.96875 2.71875 -0.96875 Z M 2.71875 -0.96875 "/></g></g><g transform="translate(96.736072, 53.910403)"><g><path d="M 0.640625 -6.15625 C 0.640625 -6.582031 0.882812 -6.796875 1.375 -6.796875 C 1.851562 -6.796875 2.09375 -6.582031 2.09375 -6.15625 C 2.09375 -5.945312 2.03125 -5.785156 1.90625 -5.671875 C 1.789062 -5.554688 1.613281 -5.5 1.375 -5.5 C 0.882812 -5.5 0.640625 -5.71875 0.640625 -6.15625 Z M 2.03125 0 L 0.703125 0 L 0.703125 -4.890625 L 2.03125 -4.890625 Z M 2.03125 0 "/></g></g><g transform="translate(99.470501, 53.910403)"><g><path d="M 1.765625 -2.453125 C 1.765625 -1.972656 1.84375 -1.609375 2 -1.359375 C 2.15625 -1.109375 2.414062 -0.984375 2.78125 -0.984375 C 3.132812 -0.984375 3.390625 -1.101562 3.546875 -1.34375 C 3.703125 -1.59375 3.78125 -1.960938 3.78125 -2.453125 C 3.78125 -2.929688 3.703125 -3.289062 3.546875 -3.53125 C 3.390625 -3.78125 3.128906 -3.90625 2.765625 -3.90625 C 2.410156 -3.90625 2.15625 -3.785156 2 -3.546875 C 1.84375 -3.304688 1.765625 -2.941406 1.765625 -2.453125 Z M 5.140625 -2.453125 C 5.140625 -1.660156 4.925781 -1.035156 4.5 -0.578125 C 4.082031 -0.128906 3.503906 0.09375 2.765625 0.09375 C 2.285156 0.09375 1.867188 -0.0078125 1.515625 -0.21875 C 1.160156 -0.425781 0.882812 -0.722656 0.6875 -1.109375 C 0.5 -1.492188 0.40625 -1.941406 0.40625 -2.453125 C 0.40625 -3.253906 0.613281 -3.875 1.03125 -4.3125 C 1.445312 -4.757812 2.03125 -4.984375 2.78125 -4.984375 C 3.25 -4.984375 3.660156 -4.878906 4.015625 -4.671875 C 4.378906 -4.472656 4.65625 -4.179688 4.84375 -3.796875 C 5.039062 -3.410156 5.140625 -2.960938 5.140625 -2.453125 Z M 5.140625 -2.453125 "/></g></g></g></svg>