<svg xmlns="http://www.w3.org/2000/svg" xmlns:xlink="http://www.w3.org/1999/xlink" width="500" zoomAndPan="magnify" viewBox="0 0 375 374.999991" height="500" preserveAspectRatio="xMidYMid meet" version="1.0"><defs><g/></defs><rect x="-37.5" width="450" fill="#ffffff" y="-37.499999" height="449.999989" fill-opacity="1"/><rect x="-37.5" width="450" fill="#ffffff" y="-37.499999" height="449.999989" fill-opacity="1"/><g fill="#ffffff" fill-opacity="1"><g transform="translate(21.937503, 213.976246)"><g><path d="M 15.59375 -3.546875 L 1.53125 -9.734375 L 1.53125 -11.15625 L 15.59375 -18.171875 L 15.59375 -16 L 4.140625 -10.5625 L 15.59375 -5.75 Z M 15.59375 -3.546875 "/></g></g></g><g fill="#ffffff" fill-opacity="1"><g transform="translate(39.084127, 213.976246)"><g><path d="M 7.234375 -22.796875 L 9.296875 -22.796875 L 9.296875 7.265625 L 7.234375 7.265625 Z M 7.234375 -22.796875 "/></g></g></g><g fill="#ffffff" fill-opacity="1"><g transform="translate(55.601109, 213.976246)"><g><path d="M 12.359375 -11.21875 L 19.640625 -11.21875 L 19.640625 -0.8125 C 18.503906 -0.445312 17.347656 -0.171875 16.171875 0.015625 C 15.003906 0.203125 13.648438 0.296875 12.109375 0.296875 C 8.867188 0.296875 6.34375 -0.664062 4.53125 -2.59375 C 2.726562 -4.53125 1.828125 -7.234375 1.828125 -10.703125 C 1.828125 -12.929688 2.273438 -14.882812 3.171875 -16.5625 C 4.066406 -18.238281 5.351562 -19.515625 7.03125 -20.390625 C 8.707031 -21.273438 10.675781 -21.71875 12.9375 -21.71875 C 15.21875 -21.71875 17.347656 -21.300781 19.328125 -20.46875 L 18.359375 -18.265625 C 16.421875 -19.085938 14.5625 -19.5 12.78125 -19.5 C 10.164062 -19.5 8.125 -18.722656 6.65625 -17.171875 C 5.195312 -15.617188 4.46875 -13.460938 4.46875 -10.703125 C 4.46875 -7.816406 5.171875 -5.625 6.578125 -4.125 C 7.992188 -2.632812 10.066406 -1.890625 12.796875 -1.890625 C 14.285156 -1.890625 15.738281 -2.0625 17.15625 -2.40625 L 17.15625 -9 L 12.359375 -9 Z M 12.359375 -11.21875 "/></g></g></g><g fill="#ffffff" fill-opacity="1"><g transform="translate(77.433402, 213.976246)"><g><path d="M 9.359375 0.296875 C 6.984375 0.296875 5.109375 -0.425781 3.734375 -1.875 C 2.367188 -3.320312 1.6875 -5.328125 1.6875 -7.890625 C 1.6875 -10.484375 2.320312 -12.539062 3.59375 -14.0625 C 4.875 -15.582031 6.585938 -16.34375 8.734375 -16.34375 C 10.742188 -16.34375 12.332031 -15.679688 13.5 -14.359375 C 14.675781 -13.035156 15.265625 -11.289062 15.265625 -9.125 L 15.265625 -7.59375 L 4.203125 -7.59375 C 4.253906 -5.707031 4.726562 -4.273438 5.625 -3.296875 C 6.53125 -2.316406 7.804688 -1.828125 9.453125 -1.828125 C 11.179688 -1.828125 12.890625 -2.191406 14.578125 -2.921875 L 14.578125 -0.75 C 13.710938 -0.375 12.894531 -0.109375 12.125 0.046875 C 11.363281 0.210938 10.441406 0.296875 9.359375 0.296875 Z M 8.703125 -14.3125 C 7.410156 -14.3125 6.378906 -13.890625 5.609375 -13.046875 C 4.847656 -12.210938 4.398438 -11.050781 4.265625 -9.5625 L 12.65625 -9.5625 C 12.65625 -11.09375 12.3125 -12.265625 11.625 -13.078125 C 10.945312 -13.898438 9.972656 -14.3125 8.703125 -14.3125 Z M 8.703125 -14.3125 "/></g></g></g><g fill="#ffffff" fill-opacity="1"><g transform="translate(94.257887, 213.976246)"><g><path d="M 13.5625 0 L 13.5625 -10.390625 C 13.5625 -11.691406 13.265625 -12.664062 12.671875 -13.3125 C 12.078125 -13.957031 11.144531 -14.28125 9.875 -14.28125 C 8.195312 -14.28125 6.96875 -13.828125 6.1875 -12.921875 C 5.40625 -12.015625 5.015625 -10.515625 5.015625 -8.421875 L 5.015625 0 L 2.578125 0 L 2.578125 -16.0625 L 4.5625 -16.0625 L 4.953125 -13.859375 L 5.0625 -13.859375 C 5.5625 -14.648438 6.257812 -15.257812 7.15625 -15.6875 C 8.0625 -16.125 9.066406 -16.34375 10.171875 -16.34375 C 12.097656 -16.34375 13.550781 -15.875 14.53125 -14.9375 C 15.507812 -14.007812 16 -12.519531 16 -10.46875 L 16 0 Z M 13.5625 0 "/></g></g></g><g fill="#ffffff" fill-opacity="1"><g transform="translate(112.663785, 213.976246)"><g><path d="M 16.4375 -8.046875 C 16.4375 -5.421875 15.773438 -3.375 14.453125 -1.90625 C 13.140625 -0.4375 11.320312 0.296875 9 0.296875 C 7.5625 0.296875 6.285156 -0.0390625 5.171875 -0.71875 C 4.054688 -1.394531 3.195312 -2.363281 2.59375 -3.625 C 1.988281 -4.882812 1.6875 -6.359375 1.6875 -8.046875 C 1.6875 -10.660156 2.335938 -12.695312 3.640625 -14.15625 C 4.953125 -15.613281 6.769531 -16.34375 9.09375 -16.34375 C 11.34375 -16.34375 13.128906 -15.59375 14.453125 -14.09375 C 15.773438 -12.601562 16.4375 -10.585938 16.4375 -8.046875 Z M 4.203125 -8.046875 C 4.203125 -5.992188 4.613281 -4.429688 5.4375 -3.359375 C 6.257812 -2.285156 7.460938 -1.75 9.046875 -1.75 C 10.640625 -1.75 11.847656 -2.28125 12.671875 -3.34375 C 13.503906 -4.414062 13.921875 -5.984375 13.921875 -8.046875 C 13.921875 -10.085938 13.503906 -11.632812 12.671875 -12.6875 C 11.847656 -13.75 10.632812 -14.28125 9.03125 -14.28125 C 7.4375 -14.28125 6.234375 -13.753906 5.421875 -12.703125 C 4.609375 -11.660156 4.203125 -10.109375 4.203125 -8.046875 Z M 4.203125 -8.046875 "/></g></g></g><g fill="#ffffff" fill-opacity="1"><g transform="translate(130.776828, 213.976246)"><g><path d="M 4.859375 -16.0625 L 4.859375 -5.640625 C 4.859375 -4.328125 5.15625 -3.347656 5.75 -2.703125 C 6.351562 -2.066406 7.289062 -1.75 8.5625 -1.75 C 10.238281 -1.75 11.460938 -2.207031 12.234375 -3.125 C 13.015625 -4.039062 13.40625 -5.539062 13.40625 -7.625 L 13.40625 -16.0625 L 15.828125 -16.0625 L 15.828125 0 L 13.828125 0 L 13.484375 -2.15625 L 13.34375 -2.15625 C 12.84375 -1.363281 12.148438 -0.753906 11.265625 -0.328125 C 10.390625 0.0859375 9.382812 0.296875 8.25 0.296875 C 6.289062 0.296875 4.828125 -0.164062 3.859375 -1.09375 C 2.890625 -2.019531 2.40625 -3.503906 2.40625 -5.546875 L 2.40625 -16.0625 Z M 4.859375 -16.0625 "/></g></g></g><g fill="#ffffff" fill-opacity="1"><g transform="translate(149.182726, 213.976246)"><g><path d="M 13.5 -2.15625 L 13.375 -2.15625 C 12.25 -0.519531 10.566406 0.296875 8.328125 0.296875 C 6.234375 0.296875 4.601562 -0.421875 3.4375 -1.859375 C 2.269531 -3.296875 1.6875 -5.335938 1.6875 -7.984375 C 1.6875 -10.628906 2.269531 -12.679688 3.4375 -14.140625 C 4.613281 -15.609375 6.242188 -16.34375 8.328125 -16.34375 C 10.515625 -16.34375 12.1875 -15.550781 13.34375 -13.96875 L 13.53125 -13.96875 L 13.4375 -15.125 L 13.375 -16.265625 L 13.375 -22.796875 L 15.8125 -22.796875 L 15.8125 0 L 13.828125 0 Z M 8.640625 -1.75 C 10.304688 -1.75 11.507812 -2.195312 12.25 -3.09375 C 13 -4 13.375 -5.457031 13.375 -7.46875 L 13.375 -7.984375 C 13.375 -10.253906 12.992188 -11.875 12.234375 -12.84375 C 11.484375 -13.820312 10.273438 -14.3125 8.609375 -14.3125 C 7.179688 -14.3125 6.085938 -13.753906 5.328125 -12.640625 C 4.578125 -11.535156 4.203125 -9.972656 4.203125 -7.953125 C 4.203125 -5.898438 4.578125 -4.351562 5.328125 -3.3125 C 6.078125 -2.269531 7.179688 -1.75 8.640625 -1.75 Z M 8.640625 -1.75 "/></g></g></g><g fill="#ffffff" fill-opacity="1"><g transform="translate(167.559338, 213.976246)"><g><path d="M 12.109375 -19.5 C 9.753906 -19.5 7.894531 -18.710938 6.53125 -17.140625 C 5.175781 -15.578125 4.5 -13.429688 4.5 -10.703125 C 4.5 -7.898438 5.15625 -5.734375 6.46875 -4.203125 C 7.78125 -2.679688 9.648438 -1.921875 12.078125 -1.921875 C 13.578125 -1.921875 15.285156 -2.1875 17.203125 -2.71875 L 17.203125 -0.546875 C 15.710938 0.015625 13.878906 0.296875 11.703125 0.296875 C 8.546875 0.296875 6.109375 -0.660156 4.390625 -2.578125 C 2.679688 -4.492188 1.828125 -7.210938 1.828125 -10.734375 C 1.828125 -12.941406 2.238281 -14.875 3.0625 -16.53125 C 3.894531 -18.195312 5.085938 -19.476562 6.640625 -20.375 C 8.203125 -21.269531 10.035156 -21.71875 12.140625 -21.71875 C 14.390625 -21.71875 16.351562 -21.3125 18.03125 -20.5 L 16.984375 -18.359375 C 15.359375 -19.117188 13.734375 -19.5 12.109375 -19.5 Z M 12.109375 -19.5 "/></g></g></g><g fill="#ffffff" fill-opacity="1"><g transform="translate(186.477726, 213.976246)"><g><path d="M 16.4375 -8.046875 C 16.4375 -5.421875 15.773438 -3.375 14.453125 -1.90625 C 13.140625 -0.4375 11.320312 0.296875 9 0.296875 C 7.5625 0.296875 6.285156 -0.0390625 5.171875 -0.71875 C 4.054688 -1.394531 3.195312 -2.363281 2.59375 -3.625 C 1.988281 -4.882812 1.6875 -6.359375 1.6875 -8.046875 C 1.6875 -10.660156 2.335938 -12.695312 3.640625 -14.15625 C 4.953125 -15.613281 6.769531 -16.34375 9.09375 -16.34375 C 11.34375 -16.34375 13.128906 -15.59375 14.453125 -14.09375 C 15.773438 -12.601562 16.4375 -10.585938 16.4375 -8.046875 Z M 4.203125 -8.046875 C 4.203125 -5.992188 4.613281 -4.429688 5.4375 -3.359375 C 6.257812 -2.285156 7.460938 -1.75 9.046875 -1.75 C 10.640625 -1.75 11.847656 -2.28125 12.671875 -3.34375 C 13.503906 -4.414062 13.921875 -5.984375 13.921875 -8.046875 C 13.921875 -10.085938 13.503906 -11.632812 12.671875 -12.6875 C 11.847656 -13.75 10.632812 -14.28125 9.03125 -14.28125 C 7.4375 -14.28125 6.234375 -13.753906 5.421875 -12.703125 C 4.609375 -11.660156 4.203125 -10.109375 4.203125 -8.046875 Z M 4.203125 -8.046875 "/></g></g></g><g fill="#ffffff" fill-opacity="1"><g transform="translate(204.590769, 213.976246)"><g><path d="M 13.5 -2.15625 L 13.375 -2.15625 C 12.25 -0.519531 10.566406 0.296875 8.328125 0.296875 C 6.234375 0.296875 4.601562 -0.421875 3.4375 -1.859375 C 2.269531 -3.296875 1.6875 -5.335938 1.6875 -7.984375 C 1.6875 -10.628906 2.269531 -12.679688 3.4375 -14.140625 C 4.613281 -15.609375 6.242188 -16.34375 8.328125 -16.34375 C 10.515625 -16.34375 12.1875 -15.550781 13.34375 -13.96875 L 13.53125 -13.96875 L 13.4375 -15.125 L 13.375 -16.265625 L 13.375 -22.796875 L 15.8125 -22.796875 L 15.8125 0 L 13.828125 0 Z M 8.640625 -1.75 C 10.304688 -1.75 11.507812 -2.195312 12.25 -3.09375 C 13 -4 13.375 -5.457031 13.375 -7.46875 L 13.375 -7.984375 C 13.375 -10.253906 12.992188 -11.875 12.234375 -12.84375 C 11.484375 -13.820312 10.273438 -14.3125 8.609375 -14.3125 C 7.179688 -14.3125 6.085938 -13.753906 5.328125 -12.640625 C 4.578125 -11.535156 4.203125 -9.972656 4.203125 -7.953125 C 4.203125 -5.898438 4.578125 -4.351562 5.328125 -3.3125 C 6.078125 -2.269531 7.179688 -1.75 8.640625 -1.75 Z M 8.640625 -1.75 "/></g></g></g><g fill="#ffffff" fill-opacity="1"><g transform="translate(222.967381, 213.976246)"><g><path d="M 9.359375 0.296875 C 6.984375 0.296875 5.109375 -0.425781 3.734375 -1.875 C 2.367188 -3.320312 1.6875 -5.328125 1.6875 -7.890625 C 1.6875 -10.484375 2.320312 -12.539062 3.59375 -14.0625 C 4.875 -15.582031 6.585938 -16.34375 8.734375 -16.34375 C 10.742188 -16.34375 12.332031 -15.679688 13.5 -14.359375 C 14.675781 -13.035156 15.265625 -11.289062 15.265625 -9.125 L 15.265625 -7.59375 L 4.203125 -7.59375 C 4.253906 -5.707031 4.726562 -4.273438 5.625 -3.296875 C 6.53125 -2.316406 7.804688 -1.828125 9.453125 -1.828125 C 11.179688 -1.828125 12.890625 -2.191406 14.578125 -2.921875 L 14.578125 -0.75 C 13.710938 -0.375 12.894531 -0.109375 12.125 0.046875 C 11.363281 0.210938 10.441406 0.296875 9.359375 0.296875 Z M 8.703125 -14.3125 C 7.410156 -14.3125 6.378906 -13.890625 5.609375 -13.046875 C 4.847656 -12.210938 4.398438 -11.050781 4.265625 -9.5625 L 12.65625 -9.5625 C 12.65625 -11.09375 12.3125 -12.265625 11.625 -13.078125 C 10.945312 -13.898438 9.972656 -14.3125 8.703125 -14.3125 Z M 8.703125 -14.3125 "/></g></g></g><g fill="#ffffff" fill-opacity="1"><g transform="translate(239.791866, 213.976246)"><g/></g></g><g fill="#ffffff" fill-opacity="1"><g transform="translate(247.58179, 213.976246)"><g><path d="M 4.859375 -16.0625 L 4.859375 -5.640625 C 4.859375 -4.328125 5.15625 -3.347656 5.75 -2.703125 C 6.351562 -2.066406 7.289062 -1.75 8.5625 -1.75 C 10.238281 -1.75 11.460938 -2.207031 12.234375 -3.125 C 13.015625 -4.039062 13.40625 -5.539062 13.40625 -7.625 L 13.40625 -16.0625 L 15.828125 -16.0625 L 15.828125 0 L 13.828125 0 L 13.484375 -2.15625 L 13.34375 -2.15625 C 12.84375 -1.363281 12.148438 -0.753906 11.265625 -0.328125 C 10.390625 0.0859375 9.382812 0.296875 8.25 0.296875 C 6.289062 0.296875 4.828125 -0.164062 3.859375 -1.09375 C 2.890625 -2.019531 2.40625 -3.503906 2.40625 -5.546875 L 2.40625 -16.0625 Z M 4.859375 -16.0625 "/></g></g></g><g fill="#ffffff" fill-opacity="1"><g transform="translate(265.987688, 213.976246)"><g><path d="M 13.5 -2.15625 L 13.375 -2.15625 C 12.25 -0.519531 10.566406 0.296875 8.328125 0.296875 C 6.234375 0.296875 4.601562 -0.421875 3.4375 -1.859375 C 2.269531 -3.296875 1.6875 -5.335938 1.6875 -7.984375 C 1.6875 -10.628906 2.269531 -12.679688 3.4375 -14.140625 C 4.613281 -15.609375 6.242188 -16.34375 8.328125 -16.34375 C 10.515625 -16.34375 12.1875 -15.550781 13.34375 -13.96875 L 13.53125 -13.96875 L 13.4375 -15.125 L 13.375 -16.265625 L 13.375 -22.796875 L 15.8125 -22.796875 L 15.8125 0 L 13.828125 0 Z M 8.640625 -1.75 C 10.304688 -1.75 11.507812 -2.195312 12.25 -3.09375 C 13 -4 13.375 -5.457031 13.375 -7.46875 L 13.375 -7.984375 C 13.375 -10.253906 12.992188 -11.875 12.234375 -12.84375 C 11.484375 -13.820312 10.273438 -14.3125 8.609375 -14.3125 C 7.179688 -14.3125 6.085938 -13.753906 5.328125 -12.640625 C 4.578125 -11.535156 4.203125 -9.972656 4.203125 -7.953125 C 4.203125 -5.898438 4.578125 -4.351562 5.328125 -3.3125 C 6.078125 -2.269531 7.179688 -1.75 8.640625 -1.75 Z M 8.640625 -1.75 "/></g></g></g><g fill="#ffffff" fill-opacity="1"><g transform="translate(284.364289, 213.976246)"><g><path d="M 5.015625 0 L 2.578125 0 L 2.578125 -16.0625 L 5.015625 -16.0625 Z M 2.375 -20.40625 C 2.375 -20.957031 2.507812 -21.363281 2.78125 -21.625 C 3.050781 -21.882812 3.394531 -22.015625 3.8125 -22.015625 C 4.195312 -22.015625 4.53125 -21.878906 4.8125 -21.609375 C 5.101562 -21.347656 5.25 -20.945312 5.25 -20.40625 C 5.25 -19.851562 5.101562 -19.441406 4.8125 -19.171875 C 4.53125 -18.910156 4.195312 -18.78125 3.8125 -18.78125 C 3.394531 -18.78125 3.050781 -18.910156 2.78125 -19.171875 C 2.507812 -19.441406 2.375 -19.851562 2.375 -20.40625 Z M 2.375 -20.40625 "/></g></g></g><g fill="#ffffff" fill-opacity="1"><g transform="translate(291.949204, 213.976246)"><g><path d="M 16.4375 -8.046875 C 16.4375 -5.421875 15.773438 -3.375 14.453125 -1.90625 C 13.140625 -0.4375 11.320312 0.296875 9 0.296875 C 7.5625 0.296875 6.285156 -0.0390625 5.171875 -0.71875 C 4.054688 -1.394531 3.195312 -2.363281 2.59375 -3.625 C 1.988281 -4.882812 1.6875 -6.359375 1.6875 -8.046875 C 1.6875 -10.660156 2.335938 -12.695312 3.640625 -14.15625 C 4.953125 -15.613281 6.769531 -16.34375 9.09375 -16.34375 C 11.34375 -16.34375 13.128906 -15.59375 14.453125 -14.09375 C 15.773438 -12.601562 16.4375 -10.585938 16.4375 -8.046875 Z M 4.203125 -8.046875 C 4.203125 -5.992188 4.613281 -4.429688 5.4375 -3.359375 C 6.257812 -2.285156 7.460938 -1.75 9.046875 -1.75 C 10.640625 -1.75 11.847656 -2.28125 12.671875 -3.34375 C 13.503906 -4.414062 13.921875 -5.984375 13.921875 -8.046875 C 13.921875 -10.085938 13.503906 -11.632812 12.671875 -12.6875 C 11.847656 -13.75 10.632812 -14.28125 9.03125 -14.28125 C 7.4375 -14.28125 6.234375 -13.753906 5.421875 -12.703125 C 4.609375 -11.660156 4.203125 -10.109375 4.203125 -8.046875 Z M 4.203125 -8.046875 "/></g></g></g><g fill="#ffffff" fill-opacity="1"><g transform="translate(310.062247, 213.976246)"><g><path d="M 13.5 -2.15625 L 13.375 -2.15625 C 12.25 -0.519531 10.566406 0.296875 8.328125 0.296875 C 6.234375 0.296875 4.601562 -0.421875 3.4375 -1.859375 C 2.269531 -3.296875 1.6875 -5.335938 1.6875 -7.984375 C 1.6875 -10.628906 2.269531 -12.679688 3.4375 -14.140625 C 4.613281 -15.609375 6.242188 -16.34375 8.328125 -16.34375 C 10.515625 -16.34375 12.1875 -15.550781 13.34375 -13.96875 L 13.53125 -13.96875 L 13.4375 -15.125 L 13.375 -16.265625 L 13.375 -22.796875 L 15.8125 -22.796875 L 15.8125 0 L 13.828125 0 Z M 8.640625 -1.75 C 10.304688 -1.75 11.507812 -2.195312 12.25 -3.09375 C 13 -4 13.375 -5.457031 13.375 -7.46875 L 13.375 -7.984375 C 13.375 -10.253906 12.992188 -11.875 12.234375 -12.84375 C 11.484375 -13.820312 10.273438 -14.3125 8.609375 -14.3125 C 7.179688 -14.3125 6.085938 -13.753906 5.328125 -12.640625 C 4.578125 -11.535156 4.203125 -9.972656 4.203125 -7.953125 C 4.203125 -5.898438 4.578125 -4.351562 5.328125 -3.3125 C 6.078125 -2.269531 7.179688 -1.75 8.640625 -1.75 Z M 8.640625 -1.75 "/></g></g></g><g fill="#ffffff" fill-opacity="1"><g transform="translate(328.438871, 213.976246)"><g><path d="M 9.359375 0.296875 C 6.984375 0.296875 5.109375 -0.425781 3.734375 -1.875 C 2.367188 -3.320312 1.6875 -5.328125 1.6875 -7.890625 C 1.6875 -10.484375 2.320312 -12.539062 3.59375 -14.0625 C 4.875 -15.582031 6.585938 -16.34375 8.734375 -16.34375 C 10.742188 -16.34375 12.332031 -15.679688 13.5 -14.359375 C 14.675781 -13.035156 15.265625 -11.289062 15.265625 -9.125 L 15.265625 -7.59375 L 4.203125 -7.59375 C 4.253906 -5.707031 4.726562 -4.273438 5.625 -3.296875 C 6.53125 -2.316406 7.804688 -1.828125 9.453125 -1.828125 C 11.179688 -1.828125 12.890625 -2.191406 14.578125 -2.921875 L 14.578125 -0.75 C 13.710938 -0.375 12.894531 -0.109375 12.125 0.046875 C 11.363281 0.210938 10.441406 0.296875 9.359375 0.296875 Z M 8.703125 -14.3125 C 7.410156 -14.3125 6.378906 -13.890625 5.609375 -13.046875 C 4.847656 -12.210938 4.398438 -11.050781 4.265625 -9.5625 L 12.65625 -9.5625 C 12.65625 -11.09375 12.3125 -12.265625 11.625 -13.078125 C 10.945312 -13.898438 9.972656 -14.3125 8.703125 -14.3125 Z M 8.703125 -14.3125 "/></g></g></g><g fill="#ffffff" fill-opacity="1"><g transform="translate(345.269517, 213.976246)"><g/></g></g><g fill="#ffffff" fill-opacity="1"><g transform="translate(5.84766, 198.758029)"><g/></g><g transform="translate(13.640629, 198.758029)"><g/></g></g><g fill="#ffffff" fill-opacity="1"><g transform="translate(21.433597, 198.758029)"><g><path d="M 15.59375 -3.546875 L 1.53125 -9.734375 L 1.53125 -11.15625 L 15.59375 -18.171875 L 15.59375 -16 L 4.140625 -10.5625 L 15.59375 -5.75 Z M 15.59375 -3.546875 "/></g></g><g transform="translate(38.586916, 198.758029)"><g><path d="M 7.234375 -22.796875 L 9.296875 -22.796875 L 9.296875 7.265625 L 7.234375 7.265625 Z M 7.234375 -22.796875 "/></g></g></g><g fill="#ffffff" fill-opacity="1"><g transform="translate(55.113282, 198.758029)"><g/></g><g transform="translate(62.906251, 198.758029)"><g/></g><g transform="translate(70.699219, 198.758029)"><g/></g><g transform="translate(78.492187, 198.758029)"><g/></g><g transform="translate(86.285156, 198.758029)"><g/></g><g transform="translate(94.078124, 198.758029)"><g/></g></g><g fill="#ffffff" fill-opacity="1"><g transform="translate(101.871092, 198.758029)"><g><path d="M 12.359375 -11.21875 L 19.640625 -11.21875 L 19.640625 -0.8125 C 18.503906 -0.445312 17.347656 -0.171875 16.171875 0.015625 C 15.003906 0.203125 13.648438 0.296875 12.109375 0.296875 C 8.867188 0.296875 6.34375 -0.664062 4.53125 -2.59375 C 2.726562 -4.53125 1.828125 -7.234375 1.828125 -10.703125 C 1.828125 -12.929688 2.273438 -14.882812 3.171875 -16.5625 C 4.066406 -18.238281 5.351562 -19.515625 7.03125 -20.390625 C 8.707031 -21.273438 10.675781 -21.71875 12.9375 -21.71875 C 15.21875 -21.71875 17.347656 -21.300781 19.328125 -20.46875 L 18.359375 -18.265625 C 16.421875 -19.085938 14.5625 -19.5 12.78125 -19.5 C 10.164062 -19.5 8.125 -18.722656 6.65625 -17.171875 C 5.195312 -15.617188 4.46875 -13.460938 4.46875 -10.703125 C 4.46875 -7.816406 5.171875 -5.625 6.578125 -4.125 C 7.992188 -2.632812 10.066406 -1.890625 12.796875 -1.890625 C 14.285156 -1.890625 15.738281 -2.0625 17.15625 -2.40625 L 17.15625 -9 L 12.359375 -9 Z M 12.359375 -11.21875 "/></g></g><g transform="translate(123.71191, 198.758029)"><g><path d="M 9.359375 0.296875 C 6.984375 0.296875 5.109375 -0.425781 3.734375 -1.875 C 2.367188 -3.320312 1.6875 -5.328125 1.6875 -7.890625 C 1.6875 -10.484375 2.320312 -12.539062 3.59375 -14.0625 C 4.875 -15.582031 6.585938 -16.34375 8.734375 -16.34375 C 10.742188 -16.34375 12.332031 -15.679688 13.5 -14.359375 C 14.675781 -13.035156 15.265625 -11.289062 15.265625 -9.125 L 15.265625 -7.59375 L 4.203125 -7.59375 C 4.253906 -5.707031 4.726562 -4.273438 5.625 -3.296875 C 6.53125 -2.316406 7.804688 -1.828125 9.453125 -1.828125 C 11.179688 -1.828125 12.890625 -2.191406 14.578125 -2.921875 L 14.578125 -0.75 C 13.710938 -0.375 12.894531 -0.109375 12.125 0.046875 C 11.363281 0.210938 10.441406 0.296875 9.359375 0.296875 Z M 8.703125 -14.3125 C 7.410156 -14.3125 6.378906 -13.890625 5.609375 -13.046875 C 4.847656 -12.210938 4.398438 -11.050781 4.265625 -9.5625 L 12.65625 -9.5625 C 12.65625 -11.09375 12.3125 -12.265625 11.625 -13.078125 C 10.945312 -13.898438 9.972656 -14.3125 8.703125 -14.3125 Z M 8.703125 -14.3125 "/></g></g><g transform="translate(140.542964, 198.758029)"><g><path d="M 13.5625 0 L 13.5625 -10.390625 C 13.5625 -11.691406 13.265625 -12.664062 12.671875 -13.3125 C 12.078125 -13.957031 11.144531 -14.28125 9.875 -14.28125 C 8.195312 -14.28125 6.96875 -13.828125 6.1875 -12.921875 C 5.40625 -12.015625 5.015625 -10.515625 5.015625 -8.421875 L 5.015625 0 L 2.578125 0 L 2.578125 -16.0625 L 4.5625 -16.0625 L 4.953125 -13.859375 L 5.0625 -13.859375 C 5.5625 -14.648438 6.257812 -15.257812 7.15625 -15.6875 C 8.0625 -16.125 9.066406 -16.34375 10.171875 -16.34375 C 12.097656 -16.34375 13.550781 -15.875 14.53125 -14.9375 C 15.507812 -14.007812 16 -12.519531 16 -10.46875 L 16 0 Z M 13.5625 0 "/></g></g><g transform="translate(158.956049, 198.758029)"><g><path d="M 16.4375 -8.046875 C 16.4375 -5.421875 15.773438 -3.375 14.453125 -1.90625 C 13.140625 -0.4375 11.320312 0.296875 9 0.296875 C 7.5625 0.296875 6.285156 -0.0390625 5.171875 -0.71875 C 4.054688 -1.394531 3.195312 -2.363281 2.59375 -3.625 C 1.988281 -4.882812 1.6875 -6.359375 1.6875 -8.046875 C 1.6875 -10.660156 2.335938 -12.695312 3.640625 -14.15625 C 4.953125 -15.613281 6.769531 -16.34375 9.09375 -16.34375 C 11.34375 -16.34375 13.128906 -15.59375 14.453125 -14.09375 C 15.773438 -12.601562 16.4375 -10.585938 16.4375 -8.046875 Z M 4.203125 -8.046875 C 4.203125 -5.992188 4.613281 -4.429688 5.4375 -3.359375 C 6.257812 -2.285156 7.460938 -1.75 9.046875 -1.75 C 10.640625 -1.75 11.847656 -2.28125 12.671875 -3.34375 C 13.503906 -4.414062 13.921875 -5.984375 13.921875 -8.046875 C 13.921875 -10.085938 13.503906 -11.632812 12.671875 -12.6875 C 11.847656 -13.75 10.632812 -14.28125 9.03125 -14.28125 C 7.4375 -14.28125 6.234375 -13.753906 5.421875 -12.703125 C 4.609375 -11.660156 4.203125 -10.109375 4.203125 -8.046875 Z M 4.203125 -8.046875 "/></g></g><g transform="translate(177.076165, 198.758029)"><g><path d="M 4.859375 -16.0625 L 4.859375 -5.640625 C 4.859375 -4.328125 5.15625 -3.347656 5.75 -2.703125 C 6.351562 -2.066406 7.289062 -1.75 8.5625 -1.75 C 10.238281 -1.75 11.460938 -2.207031 12.234375 -3.125 C 13.015625 -4.039062 13.40625 -5.539062 13.40625 -7.625 L 13.40625 -16.0625 L 15.828125 -16.0625 L 15.828125 0 L 13.828125 0 L 13.484375 -2.15625 L 13.34375 -2.15625 C 12.84375 -1.363281 12.148438 -0.753906 11.265625 -0.328125 C 10.390625 0.0859375 9.382812 0.296875 8.25 0.296875 C 6.289062 0.296875 4.828125 -0.164062 3.859375 -1.09375 C 2.890625 -2.019531 2.40625 -3.503906 2.40625 -5.546875 L 2.40625 -16.0625 Z M 4.859375 -16.0625 "/></g></g><g transform="translate(195.48925, 198.758029)"><g><path d="M 13.5 -2.15625 L 13.375 -2.15625 C 12.25 -0.519531 10.566406 0.296875 8.328125 0.296875 C 6.234375 0.296875 4.601562 -0.421875 3.4375 -1.859375 C 2.269531 -3.296875 1.6875 -5.335938 1.6875 -7.984375 C 1.6875 -10.628906 2.269531 -12.679688 3.4375 -14.140625 C 4.613281 -15.609375 6.242188 -16.34375 8.328125 -16.34375 C 10.515625 -16.34375 12.1875 -15.550781 13.34375 -13.96875 L 13.53125 -13.96875 L 13.4375 -15.125 L 13.375 -16.265625 L 13.375 -22.796875 L 15.8125 -22.796875 L 15.8125 0 L 13.828125 0 Z M 8.640625 -1.75 C 10.304688 -1.75 11.507812 -2.195312 12.25 -3.09375 C 13 -4 13.375 -5.457031 13.375 -7.46875 L 13.375 -7.984375 C 13.375 -10.253906 12.992188 -11.875 12.234375 -12.84375 C 11.484375 -13.820312 10.273438 -14.3125 8.609375 -14.3125 C 7.179688 -14.3125 6.085938 -13.753906 5.328125 -12.640625 C 4.578125 -11.535156 4.203125 -9.972656 4.203125 -7.953125 C 4.203125 -5.898438 4.578125 -4.351562 5.328125 -3.3125 C 6.078125 -2.269531 7.179688 -1.75 8.640625 -1.75 Z M 8.640625 -1.75 "/></g></g><g transform="translate(213.873037, 198.758029)"><g><path d="M 12.109375 -19.5 C 9.753906 -19.5 7.894531 -18.710938 6.53125 -17.140625 C 5.175781 -15.578125 4.5 -13.429688 4.5 -10.703125 C 4.5 -7.898438 5.15625 -5.734375 6.46875 -4.203125 C 7.78125 -2.679688 9.648438 -1.921875 12.078125 -1.921875 C 13.578125 -1.921875 15.285156 -2.1875 17.203125 -2.71875 L 17.203125 -0.546875 C 15.710938 0.015625 13.878906 0.296875 11.703125 0.296875 C 8.546875 0.296875 6.109375 -0.660156 4.390625 -2.578125 C 2.679688 -4.492188 1.828125 -7.210938 1.828125 -10.734375 C 1.828125 -12.941406 2.238281 -14.875 3.0625 -16.53125 C 3.894531 -18.195312 5.085938 -19.476562 6.640625 -20.375 C 8.203125 -21.269531 10.035156 -21.71875 12.140625 -21.71875 C 14.390625 -21.71875 16.351562 -21.3125 18.03125 -20.5 L 16.984375 -18.359375 C 15.359375 -19.117188 13.734375 -19.5 12.109375 -19.5 Z M 12.109375 -19.5 "/></g></g><g transform="translate(232.798818, 198.758029)"><g><path d="M 16.4375 -8.046875 C 16.4375 -5.421875 15.773438 -3.375 14.453125 -1.90625 C 13.140625 -0.4375 11.320312 0.296875 9 0.296875 C 7.5625 0.296875 6.285156 -0.0390625 5.171875 -0.71875 C 4.054688 -1.394531 3.195312 -2.363281 2.59375 -3.625 C 1.988281 -4.882812 1.6875 -6.359375 1.6875 -8.046875 C 1.6875 -10.660156 2.335938 -12.695312 3.640625 -14.15625 C 4.953125 -15.613281 6.769531 -16.34375 9.09375 -16.34375 C 11.34375 -16.34375 13.128906 -15.59375 14.453125 -14.09375 C 15.773438 -12.601562 16.4375 -10.585938 16.4375 -8.046875 Z M 4.203125 -8.046875 C 4.203125 -5.992188 4.613281 -4.429688 5.4375 -3.359375 C 6.257812 -2.285156 7.460938 -1.75 9.046875 -1.75 C 10.640625 -1.75 11.847656 -2.28125 12.671875 -3.34375 C 13.503906 -4.414062 13.921875 -5.984375 13.921875 -8.046875 C 13.921875 -10.085938 13.503906 -11.632812 12.671875 -12.6875 C 11.847656 -13.75 10.632812 -14.28125 9.03125 -14.28125 C 7.4375 -14.28125 6.234375 -13.753906 5.421875 -12.703125 C 4.609375 -11.660156 4.203125 -10.109375 4.203125 -8.046875 Z M 4.203125 -8.046875 "/></g></g><g transform="translate(250.918934, 198.758029)"><g><path d="M 13.5 -2.15625 L 13.375 -2.15625 C 12.25 -0.519531 10.566406 0.296875 8.328125 0.296875 C 6.234375 0.296875 4.601562 -0.421875 3.4375 -1.859375 C 2.269531 -3.296875 1.6875 -5.335938 1.6875 -7.984375 C 1.6875 -10.628906 2.269531 -12.679688 3.4375 -14.140625 C 4.613281 -15.609375 6.242188 -16.34375 8.328125 -16.34375 C 10.515625 -16.34375 12.1875 -15.550781 13.34375 -13.96875 L 13.53125 -13.96875 L 13.4375 -15.125 L 13.375 -16.265625 L 13.375 -22.796875 L 15.8125 -22.796875 L 15.8125 0 L 13.828125 0 Z M 8.640625 -1.75 C 10.304688 -1.75 11.507812 -2.195312 12.25 -3.09375 C 13 -4 13.375 -5.457031 13.375 -7.46875 L 13.375 -7.984375 C 13.375 -10.253906 12.992188 -11.875 12.234375 -12.84375 C 11.484375 -13.820312 10.273438 -14.3125 8.609375 -14.3125 C 7.179688 -14.3125 6.085938 -13.753906 5.328125 -12.640625 C 4.578125 -11.535156 4.203125 -9.972656 4.203125 -7.953125 C 4.203125 -5.898438 4.578125 -4.351562 5.328125 -3.3125 C 6.078125 -2.269531 7.179688 -1.75 8.640625 -1.75 Z M 8.640625 -1.75 "/></g></g><g transform="translate(269.302722, 198.758029)"><g><path d="M 9.359375 0.296875 C 6.984375 0.296875 5.109375 -0.425781 3.734375 -1.875 C 2.367188 -3.320312 1.6875 -5.328125 1.6875 -7.890625 C 1.6875 -10.484375 2.320312 -12.539062 3.59375 -14.0625 C 4.875 -15.582031 6.585938 -16.34375 8.734375 -16.34375 C 10.742188 -16.34375 12.332031 -15.679688 13.5 -14.359375 C 14.675781 -13.035156 15.265625 -11.289062 15.265625 -9.125 L 15.265625 -7.59375 L 4.203125 -7.59375 C 4.253906 -5.707031 4.726562 -4.273438 5.625 -3.296875 C 6.53125 -2.316406 7.804688 -1.828125 9.453125 -1.828125 C 11.179688 -1.828125 12.890625 -2.191406 14.578125 -2.921875 L 14.578125 -0.75 C 13.710938 -0.375 12.894531 -0.109375 12.125 0.046875 C 11.363281 0.210938 10.441406 0.296875 9.359375 0.296875 Z M 8.703125 -14.3125 C 7.410156 -14.3125 6.378906 -13.890625 5.609375 -13.046875 C 4.847656 -12.210938 4.398438 -11.050781 4.265625 -9.5625 L 12.65625 -9.5625 C 12.65625 -11.09375 12.3125 -12.265625 11.625 -13.078125 C 10.945312 -13.898438 9.972656 -14.3125 8.703125 -14.3125 Z M 8.703125 -14.3125 "/></g></g><g transform="translate(286.133775, 198.758029)"><g/></g><g transform="translate(293.926744, 198.758029)"><g><path d="M 15.03125 -5.703125 C 15.03125 -3.816406 14.34375 -2.34375 12.96875 -1.28125 C 11.601562 -0.226562 9.75 0.296875 7.40625 0.296875 C 4.875 0.296875 2.921875 -0.03125 1.546875 -0.6875 L 1.546875 -3.09375 C 2.429688 -2.71875 3.390625 -2.421875 4.421875 -2.203125 C 5.460938 -1.992188 6.488281 -1.890625 7.5 -1.890625 C 9.15625 -1.890625 10.40625 -2.203125 11.25 -2.828125 C 12.09375 -3.460938 12.515625 -4.34375 12.515625 -5.46875 C 12.515625 -6.207031 12.363281 -6.8125 12.0625 -7.28125 C 11.757812 -7.757812 11.257812 -8.195312 10.5625 -8.59375 C 9.863281 -9 8.804688 -9.457031 7.390625 -9.96875 C 5.390625 -10.675781 3.960938 -11.515625 3.109375 -12.484375 C 2.253906 -13.460938 1.828125 -14.738281 1.828125 -16.3125 C 1.828125 -17.96875 2.445312 -19.28125 3.6875 -20.25 C 4.925781 -21.226562 6.566406 -21.71875 8.609375 -21.71875 C 10.742188 -21.71875 12.703125 -21.328125 14.484375 -20.546875 L 13.71875 -18.390625 C 11.945312 -19.128906 10.226562 -19.5 8.5625 -19.5 C 7.238281 -19.5 6.203125 -19.210938 5.453125 -18.640625 C 4.710938 -18.078125 4.34375 -17.296875 4.34375 -16.296875 C 4.34375 -15.546875 4.476562 -14.929688 4.75 -14.453125 C 5.03125 -13.984375 5.492188 -13.550781 6.140625 -13.15625 C 6.796875 -12.757812 7.789062 -12.320312 9.125 -11.84375 C 11.375 -11.050781 12.921875 -10.191406 13.765625 -9.265625 C 14.609375 -8.347656 15.03125 -7.160156 15.03125 -5.703125 Z M 15.03125 -5.703125 "/></g></g><g transform="translate(310.391586, 198.758029)"><g><path d="M 7.765625 -1.71875 C 8.191406 -1.71875 8.601562 -1.75 9 -1.8125 C 9.40625 -1.875 9.726562 -1.9375 9.96875 -2 L 9.96875 -0.140625 C 9.695312 -0.015625 9.304688 0.0859375 8.796875 0.171875 C 8.285156 0.253906 7.820312 0.296875 7.40625 0.296875 C 4.300781 0.296875 2.75 -1.335938 2.75 -4.609375 L 2.75 -14.171875 L 0.453125 -14.171875 L 0.453125 -15.34375 L 2.75 -16.34375 L 3.78125 -19.78125 L 5.1875 -19.78125 L 5.1875 -16.0625 L 9.84375 -16.0625 L 9.84375 -14.171875 L 5.1875 -14.171875 L 5.1875 -4.71875 C 5.1875 -3.75 5.414062 -3.003906 5.875 -2.484375 C 6.332031 -1.972656 6.960938 -1.71875 7.765625 -1.71875 Z M 7.765625 -1.71875 "/></g></g><g transform="translate(320.982406, 198.758029)"><g><path d="M 4.859375 -16.0625 L 4.859375 -5.640625 C 4.859375 -4.328125 5.15625 -3.347656 5.75 -2.703125 C 6.351562 -2.066406 7.289062 -1.75 8.5625 -1.75 C 10.238281 -1.75 11.460938 -2.207031 12.234375 -3.125 C 13.015625 -4.039062 13.40625 -5.539062 13.40625 -7.625 L 13.40625 -16.0625 L 15.828125 -16.0625 L 15.828125 0 L 13.828125 0 L 13.484375 -2.15625 L 13.34375 -2.15625 C 12.84375 -1.363281 12.148438 -0.753906 11.265625 -0.328125 C 10.390625 0.0859375 9.382812 0.296875 8.25 0.296875 C 6.289062 0.296875 4.828125 -0.164062 3.859375 -1.09375 C 2.890625 -2.019531 2.40625 -3.503906 2.40625 -5.546875 L 2.40625 -16.0625 Z M 4.859375 -16.0625 "/></g></g><g transform="translate(339.395491, 198.758029)"><g><path d="M 13.5 -2.15625 L 13.375 -2.15625 C 12.25 -0.519531 10.566406 0.296875 8.328125 0.296875 C 6.234375 0.296875 4.601562 -0.421875 3.4375 -1.859375 C 2.269531 -3.296875 1.6875 -5.335938 1.6875 -7.984375 C 1.6875 -10.628906 2.269531 -12.679688 3.4375 -14.140625 C 4.613281 -15.609375 6.242188 -16.34375 8.328125 -16.34375 C 10.515625 -16.34375 12.1875 -15.550781 13.34375 -13.96875 L 13.53125 -13.96875 L 13.4375 -15.125 L 13.375 -16.265625 L 13.375 -22.796875 L 15.8125 -22.796875 L 15.8125 0 L 13.828125 0 Z M 8.640625 -1.75 C 10.304688 -1.75 11.507812 -2.195312 12.25 -3.09375 C 13 -4 13.375 -5.457031 13.375 -7.46875 L 13.375 -7.984375 C 13.375 -10.253906 12.992188 -11.875 12.234375 -12.84375 C 11.484375 -13.820312 10.273438 -14.3125 8.609375 -14.3125 C 7.179688 -14.3125 6.085938 -13.753906 5.328125 -12.640625 C 4.578125 -11.535156 4.203125 -9.972656 4.203125 -7.953125 C 4.203125 -5.898438 4.578125 -4.351562 5.328125 -3.3125 C 6.078125 -2.269531 7.179688 -1.75 8.640625 -1.75 Z M 8.640625 -1.75 "/></g></g><g transform="translate(357.779279, 198.758029)"><g><path d="M 5.015625 0 L 2.578125 0 L 2.578125 -16.0625 L 5.015625 -16.0625 Z M 2.375 -20.40625 C 2.375 -20.957031 2.507812 -21.363281 2.78125 -21.625 C 3.050781 -21.882812 3.394531 -22.015625 3.8125 -22.015625 C 4.195312 -22.015625 4.53125 -21.878906 4.8125 -21.609375 C 5.101562 -21.347656 5.25 -20.945312 5.25 -20.40625 C 5.25 -19.851562 5.101562 -19.441406 4.8125 -19.171875 C 4.53125 -18.910156 4.195312 -18.78125 3.8125 -18.78125 C 3.394531 -18.78125 3.050781 -18.910156 2.78125 -19.171875 C 2.507812 -19.441406 2.375 -19.851562 2.375 -20.40625 Z M 2.375 -20.40625 "/></g></g><g transform="translate(365.367169, 198.758029)"><g><path d="M 16.4375 -8.046875 C 16.4375 -5.421875 15.773438 -3.375 14.453125 -1.90625 C 13.140625 -0.4375 11.320312 0.296875 9 0.296875 C 7.5625 0.296875 6.285156 -0.0390625 5.171875 -0.71875 C 4.054688 -1.394531 3.195312 -2.363281 2.59375 -3.625 C 1.988281 -4.882812 1.6875 -6.359375 1.6875 -8.046875 C 1.6875 -10.660156 2.335938 -12.695312 3.640625 -14.15625 C 4.953125 -15.613281 6.769531 -16.34375 9.09375 -16.34375 C 11.34375 -16.34375 13.128906 -15.59375 14.453125 -14.09375 C 15.773438 -12.601562 16.4375 -10.585938 16.4375 -8.046875 Z M 4.203125 -8.046875 C 4.203125 -5.992188 4.613281 -4.429688 5.4375 -3.359375 C 6.257812 -2.285156 7.460938 -1.75 9.046875 -1.75 C 10.640625 -1.75 11.847656 -2.28125 12.671875 -3.34375 C 13.503906 -4.414062 13.921875 -5.984375 13.921875 -8.046875 C 13.921875 -10.085938 13.503906 -11.632812 12.671875 -12.6875 C 11.847656 -13.75 10.632812 -14.28125 9.03125 -14.28125 C 7.4375 -14.28125 6.234375 -13.753906 5.421875 -12.703125 C 4.609375 -11.660156 4.203125 -10.109375 4.203125 -8.046875 Z M 4.203125 -8.046875 "/></g></g></g><g fill="#ffffff" fill-opacity="1"><g transform="translate(19.711963, 198.758029)"><g><path d="M 15.59375 -3.546875 L 1.53125 -9.734375 L 1.53125 -11.15625 L 15.59375 -18.171875 L 15.59375 -16 L 4.140625 -10.5625 L 15.59375 -5.75 Z M 15.59375 -3.546875 "/></g></g><g transform="translate(36.865282, 198.758029)"><g><path d="M 7.234375 -22.796875 L 9.296875 -22.796875 L 9.296875 7.265625 L 7.234375 7.265625 Z M 7.234375 -22.796875 "/></g></g></g><g fill="#ffffff" fill-opacity="1"><g transform="translate(53.391649, 198.758029)"><g/></g><g transform="translate(61.184617, 198.758029)"><g/></g><g transform="translate(68.977585, 198.758029)"><g/></g><g transform="translate(76.770554, 198.758029)"><g/></g><g transform="translate(84.563522, 198.758029)"><g/></g><g transform="translate(92.35649, 198.758029)"><g/></g><g transform="translate(100.149459, 198.758029)"><g/></g><g transform="translate(107.942427, 198.758029)"><g/></g><g transform="translate(115.735396, 198.758029)"><g/></g><g transform="translate(123.528364, 198.758029)"><g/></g><g transform="translate(131.321332, 198.758029)"><g/></g></g><g fill="#ffffff" fill-opacity="1"><g transform="translate(139.114299, 198.758029)"><g><path d="M 12.359375 -11.21875 L 19.640625 -11.21875 L 19.640625 -0.8125 C 18.503906 -0.445312 17.347656 -0.171875 16.171875 0.015625 C 15.003906 0.203125 13.648438 0.296875 12.109375 0.296875 C 8.867188 0.296875 6.34375 -0.664062 4.53125 -2.59375 C 2.726562 -4.53125 1.828125 -7.234375 1.828125 -10.703125 C 1.828125 -12.929688 2.273438 -14.882812 3.171875 -16.5625 C 4.066406 -18.238281 5.351562 -19.515625 7.03125 -20.390625 C 8.707031 -21.273438 10.675781 -21.71875 12.9375 -21.71875 C 15.21875 -21.71875 17.347656 -21.300781 19.328125 -20.46875 L 18.359375 -18.265625 C 16.421875 -19.085938 14.5625 -19.5 12.78125 -19.5 C 10.164062 -19.5 8.125 -18.722656 6.65625 -17.171875 C 5.195312 -15.617188 4.46875 -13.460938 4.46875 -10.703125 C 4.46875 -7.816406 5.171875 -5.625 6.578125 -4.125 C 7.992188 -2.632812 10.066406 -1.890625 12.796875 -1.890625 C 14.285156 -1.890625 15.738281 -2.0625 17.15625 -2.40625 L 17.15625 -9 L 12.359375 -9 Z M 12.359375 -11.21875 "/></g></g><g transform="translate(160.955118, 198.758029)"><g><path d="M 9.359375 0.296875 C 6.984375 0.296875 5.109375 -0.425781 3.734375 -1.875 C 2.367188 -3.320312 1.6875 -5.328125 1.6875 -7.890625 C 1.6875 -10.484375 2.320312 -12.539062 3.59375 -14.0625 C 4.875 -15.582031 6.585938 -16.34375 8.734375 -16.34375 C 10.742188 -16.34375 12.332031 -15.679688 13.5 -14.359375 C 14.675781 -13.035156 15.265625 -11.289062 15.265625 -9.125 L 15.265625 -7.59375 L 4.203125 -7.59375 C 4.253906 -5.707031 4.726562 -4.273438 5.625 -3.296875 C 6.53125 -2.316406 7.804688 -1.828125 9.453125 -1.828125 C 11.179688 -1.828125 12.890625 -2.191406 14.578125 -2.921875 L 14.578125 -0.75 C 13.710938 -0.375 12.894531 -0.109375 12.125 0.046875 C 11.363281 0.210938 10.441406 0.296875 9.359375 0.296875 Z M 8.703125 -14.3125 C 7.410156 -14.3125 6.378906 -13.890625 5.609375 -13.046875 C 4.847656 -12.210938 4.398438 -11.050781 4.265625 -9.5625 L 12.65625 -9.5625 C 12.65625 -11.09375 12.3125 -12.265625 11.625 -13.078125 C 10.945312 -13.898438 9.972656 -14.3125 8.703125 -14.3125 Z M 8.703125 -14.3125 "/></g></g><g transform="translate(177.786172, 198.758029)"><g><path d="M 13.5625 0 L 13.5625 -10.390625 C 13.5625 -11.691406 13.265625 -12.664062 12.671875 -13.3125 C 12.078125 -13.957031 11.144531 -14.28125 9.875 -14.28125 C 8.195312 -14.28125 6.96875 -13.828125 6.1875 -12.921875 C 5.40625 -12.015625 5.015625 -10.515625 5.015625 -8.421875 L 5.015625 0 L 2.578125 0 L 2.578125 -16.0625 L 4.5625 -16.0625 L 4.953125 -13.859375 L 5.0625 -13.859375 C 5.5625 -14.648438 6.257812 -15.257812 7.15625 -15.6875 C 8.0625 -16.125 9.066406 -16.34375 10.171875 -16.34375 C 12.097656 -16.34375 13.550781 -15.875 14.53125 -14.9375 C 15.507812 -14.007812 16 -12.519531 16 -10.46875 L 16 0 Z M 13.5625 0 "/></g></g><g transform="translate(196.199256, 198.758029)"><g><path d="M 16.4375 -8.046875 C 16.4375 -5.421875 15.773438 -3.375 14.453125 -1.90625 C 13.140625 -0.4375 11.320312 0.296875 9 0.296875 C 7.5625 0.296875 6.285156 -0.0390625 5.171875 -0.71875 C 4.054688 -1.394531 3.195312 -2.363281 2.59375 -3.625 C 1.988281 -4.882812 1.6875 -6.359375 1.6875 -8.046875 C 1.6875 -10.660156 2.335938 -12.695312 3.640625 -14.15625 C 4.953125 -15.613281 6.769531 -16.34375 9.09375 -16.34375 C 11.34375 -16.34375 13.128906 -15.59375 14.453125 -14.09375 C 15.773438 -12.601562 16.4375 -10.585938 16.4375 -8.046875 Z M 4.203125 -8.046875 C 4.203125 -5.992188 4.613281 -4.429688 5.4375 -3.359375 C 6.257812 -2.285156 7.460938 -1.75 9.046875 -1.75 C 10.640625 -1.75 11.847656 -2.28125 12.671875 -3.34375 C 13.503906 -4.414062 13.921875 -5.984375 13.921875 -8.046875 C 13.921875 -10.085938 13.503906 -11.632812 12.671875 -12.6875 C 11.847656 -13.75 10.632812 -14.28125 9.03125 -14.28125 C 7.4375 -14.28125 6.234375 -13.753906 5.421875 -12.703125 C 4.609375 -11.660156 4.203125 -10.109375 4.203125 -8.046875 Z M 4.203125 -8.046875 "/></g></g><g transform="translate(214.319372, 198.758029)"><g><path d="M 4.859375 -16.0625 L 4.859375 -5.640625 C 4.859375 -4.328125 5.15625 -3.347656 5.75 -2.703125 C 6.351562 -2.066406 7.289062 -1.75 8.5625 -1.75 C 10.238281 -1.75 11.460938 -2.207031 12.234375 -3.125 C 13.015625 -4.039062 13.40625 -5.539062 13.40625 -7.625 L 13.40625 -16.0625 L 15.828125 -16.0625 L 15.828125 0 L 13.828125 0 L 13.484375 -2.15625 L 13.34375 -2.15625 C 12.84375 -1.363281 12.148438 -0.753906 11.265625 -0.328125 C 10.390625 0.0859375 9.382812 0.296875 8.25 0.296875 C 6.289062 0.296875 4.828125 -0.164062 3.859375 -1.09375 C 2.890625 -2.019531 2.40625 -3.503906 2.40625 -5.546875 L 2.40625 -16.0625 Z M 4.859375 -16.0625 "/></g></g><g transform="translate(232.732457, 198.758029)"><g><path d="M 13.5 -2.15625 L 13.375 -2.15625 C 12.25 -0.519531 10.566406 0.296875 8.328125 0.296875 C 6.234375 0.296875 4.601562 -0.421875 3.4375 -1.859375 C 2.269531 -3.296875 1.6875 -5.335938 1.6875 -7.984375 C 1.6875 -10.628906 2.269531 -12.679688 3.4375 -14.140625 C 4.613281 -15.609375 6.242188 -16.34375 8.328125 -16.34375 C 10.515625 -16.34375 12.1875 -15.550781 13.34375 -13.96875 L 13.53125 -13.96875 L 13.4375 -15.125 L 13.375 -16.265625 L 13.375 -22.796875 L 15.8125 -22.796875 L 15.8125 0 L 13.828125 0 Z M 8.640625 -1.75 C 10.304688 -1.75 11.507812 -2.195312 12.25 -3.09375 C 13 -4 13.375 -5.457031 13.375 -7.46875 L 13.375 -7.984375 C 13.375 -10.253906 12.992188 -11.875 12.234375 -12.84375 C 11.484375 -13.820312 10.273438 -14.3125 8.609375 -14.3125 C 7.179688 -14.3125 6.085938 -13.753906 5.328125 -12.640625 C 4.578125 -11.535156 4.203125 -9.972656 4.203125 -7.953125 C 4.203125 -5.898438 4.578125 -4.351562 5.328125 -3.3125 C 6.078125 -2.269531 7.179688 -1.75 8.640625 -1.75 Z M 8.640625 -1.75 "/></g></g><g transform="translate(251.116245, 198.758029)"><g><path d="M 12.109375 -19.5 C 9.753906 -19.5 7.894531 -18.710938 6.53125 -17.140625 C 5.175781 -15.578125 4.5 -13.429688 4.5 -10.703125 C 4.5 -7.898438 5.15625 -5.734375 6.46875 -4.203125 C 7.78125 -2.679688 9.648438 -1.921875 12.078125 -1.921875 C 13.578125 -1.921875 15.285156 -2.1875 17.203125 -2.71875 L 17.203125 -0.546875 C 15.710938 0.015625 13.878906 0.296875 11.703125 0.296875 C 8.546875 0.296875 6.109375 -0.660156 4.390625 -2.578125 C 2.679688 -4.492188 1.828125 -7.210938 1.828125 -10.734375 C 1.828125 -12.941406 2.238281 -14.875 3.0625 -16.53125 C 3.894531 -18.195312 5.085938 -19.476562 6.640625 -20.375 C 8.203125 -21.269531 10.035156 -21.71875 12.140625 -21.71875 C 14.390625 -21.71875 16.351562 -21.3125 18.03125 -20.5 L 16.984375 -18.359375 C 15.359375 -19.117188 13.734375 -19.5 12.109375 -19.5 Z M 12.109375 -19.5 "/></g></g><g transform="translate(270.042025, 198.758029)"><g><path d="M 16.4375 -8.046875 C 16.4375 -5.421875 15.773438 -3.375 14.453125 -1.90625 C 13.140625 -0.4375 11.320312 0.296875 9 0.296875 C 7.5625 0.296875 6.285156 -0.0390625 5.171875 -0.71875 C 4.054688 -1.394531 3.195312 -2.363281 2.59375 -3.625 C 1.988281 -4.882812 1.6875 -6.359375 1.6875 -8.046875 C 1.6875 -10.660156 2.335938 -12.695312 3.640625 -14.15625 C 4.953125 -15.613281 6.769531 -16.34375 9.09375 -16.34375 C 11.34375 -16.34375 13.128906 -15.59375 14.453125 -14.09375 C 15.773438 -12.601562 16.4375 -10.585938 16.4375 -8.046875 Z M 4.203125 -8.046875 C 4.203125 -5.992188 4.613281 -4.429688 5.4375 -3.359375 C 6.257812 -2.285156 7.460938 -1.75 9.046875 -1.75 C 10.640625 -1.75 11.847656 -2.28125 12.671875 -3.34375 C 13.503906 -4.414062 13.921875 -5.984375 13.921875 -8.046875 C 13.921875 -10.085938 13.503906 -11.632812 12.671875 -12.6875 C 11.847656 -13.75 10.632812 -14.28125 9.03125 -14.28125 C 7.4375 -14.28125 6.234375 -13.753906 5.421875 -12.703125 C 4.609375 -11.660156 4.203125 -10.109375 4.203125 -8.046875 Z M 4.203125 -8.046875 "/></g></g><g transform="translate(288.162141, 198.758029)"><g><path d="M 13.5 -2.15625 L 13.375 -2.15625 C 12.25 -0.519531 10.566406 0.296875 8.328125 0.296875 C 6.234375 0.296875 4.601562 -0.421875 3.4375 -1.859375 C 2.269531 -3.296875 1.6875 -5.335938 1.6875 -7.984375 C 1.6875 -10.628906 2.269531 -12.679688 3.4375 -14.140625 C 4.613281 -15.609375 6.242188 -16.34375 8.328125 -16.34375 C 10.515625 -16.34375 12.1875 -15.550781 13.34375 -13.96875 L 13.53125 -13.96875 L 13.4375 -15.125 L 13.375 -16.265625 L 13.375 -22.796875 L 15.8125 -22.796875 L 15.8125 0 L 13.828125 0 Z M 8.640625 -1.75 C 10.304688 -1.75 11.507812 -2.195312 12.25 -3.09375 C 13 -4 13.375 -5.457031 13.375 -7.46875 L 13.375 -7.984375 C 13.375 -10.253906 12.992188 -11.875 12.234375 -12.84375 C 11.484375 -13.820312 10.273438 -14.3125 8.609375 -14.3125 C 7.179688 -14.3125 6.085938 -13.753906 5.328125 -12.640625 C 4.578125 -11.535156 4.203125 -9.972656 4.203125 -7.953125 C 4.203125 -5.898438 4.578125 -4.351562 5.328125 -3.3125 C 6.078125 -2.269531 7.179688 -1.75 8.640625 -1.75 Z M 8.640625 -1.75 "/></g></g><g transform="translate(306.545929, 198.758029)"><g><path d="M 9.359375 0.296875 C 6.984375 0.296875 5.109375 -0.425781 3.734375 -1.875 C 2.367188 -3.320312 1.6875 -5.328125 1.6875 -7.890625 C 1.6875 -10.484375 2.320312 -12.539062 3.59375 -14.0625 C 4.875 -15.582031 6.585938 -16.34375 8.734375 -16.34375 C 10.742188 -16.34375 12.332031 -15.679688 13.5 -14.359375 C 14.675781 -13.035156 15.265625 -11.289062 15.265625 -9.125 L 15.265625 -7.59375 L 4.203125 -7.59375 C 4.253906 -5.707031 4.726562 -4.273438 5.625 -3.296875 C 6.53125 -2.316406 7.804688 -1.828125 9.453125 -1.828125 C 11.179688 -1.828125 12.890625 -2.191406 14.578125 -2.921875 L 14.578125 -0.75 C 13.710938 -0.375 12.894531 -0.109375 12.125 0.046875 C 11.363281 0.210938 10.441406 0.296875 9.359375 0.296875 Z M 8.703125 -14.3125 C 7.410156 -14.3125 6.378906 -13.890625 5.609375 -13.046875 C 4.847656 -12.210938 4.398438 -11.050781 4.265625 -9.5625 L 12.65625 -9.5625 C 12.65625 -11.09375 12.3125 -12.265625 11.625 -13.078125 C 10.945312 -13.898438 9.972656 -14.3125 8.703125 -14.3125 Z M 8.703125 -14.3125 "/></g></g><g transform="translate(323.376983, 198.758029)"><g/></g><g transform="translate(331.169951, 198.758029)"><g><path d="M 15.03125 -5.703125 C 15.03125 -3.816406 14.34375 -2.34375 12.96875 -1.28125 C 11.601562 -0.226562 9.75 0.296875 7.40625 0.296875 C 4.875 0.296875 2.921875 -0.03125 1.546875 -0.6875 L 1.546875 -3.09375 C 2.429688 -2.71875 3.390625 -2.421875 4.421875 -2.203125 C 5.460938 -1.992188 6.488281 -1.890625 7.5 -1.890625 C 9.15625 -1.890625 10.40625 -2.203125 11.25 -2.828125 C 12.09375 -3.460938 12.515625 -4.34375 12.515625 -5.46875 C 12.515625 -6.207031 12.363281 -6.8125 12.0625 -7.28125 C 11.757812 -7.757812 11.257812 -8.195312 10.5625 -8.59375 C 9.863281 -9 8.804688 -9.457031 7.390625 -9.96875 C 5.390625 -10.675781 3.960938 -11.515625 3.109375 -12.484375 C 2.253906 -13.460938 1.828125 -14.738281 1.828125 -16.3125 C 1.828125 -17.96875 2.445312 -19.28125 3.6875 -20.25 C 4.925781 -21.226562 6.566406 -21.71875 8.609375 -21.71875 C 10.742188 -21.71875 12.703125 -21.328125 14.484375 -20.546875 L 13.71875 -18.390625 C 11.945312 -19.128906 10.226562 -19.5 8.5625 -19.5 C 7.238281 -19.5 6.203125 -19.210938 5.453125 -18.640625 C 4.710938 -18.078125 4.34375 -17.296875 4.34375 -16.296875 C 4.34375 -15.546875 4.476562 -14.929688 4.75 -14.453125 C 5.03125 -13.984375 5.492188 -13.550781 6.140625 -13.15625 C 6.796875 -12.757812 7.789062 -12.320312 9.125 -11.84375 C 11.375 -11.050781 12.921875 -10.191406 13.765625 -9.265625 C 14.609375 -8.347656 15.03125 -7.160156 15.03125 -5.703125 Z M 15.03125 -5.703125 "/></g></g><g transform="translate(347.634794, 198.758029)"><g><path d="M 7.765625 -1.71875 C 8.191406 -1.71875 8.601562 -1.75 9 -1.8125 C 9.40625 -1.875 9.726562 -1.9375 9.96875 -2 L 9.96875 -0.140625 C 9.695312 -0.015625 9.304688 0.0859375 8.796875 0.171875 C 8.285156 0.253906 7.820312 0.296875 7.40625 0.296875 C 4.300781 0.296875 2.75 -1.335938 2.75 -4.609375 L 2.75 -14.171875 L 0.453125 -14.171875 L 0.453125 -15.34375 L 2.75 -16.34375 L 3.78125 -19.78125 L 5.1875 -19.78125 L 5.1875 -16.0625 L 9.84375 -16.0625 L 9.84375 -14.171875 L 5.1875 -14.171875 L 5.1875 -4.71875 C 5.1875 -3.75 5.414062 -3.003906 5.875 -2.484375 C 6.332031 -1.972656 6.960938 -1.71875 7.765625 -1.71875 Z M 7.765625 -1.71875 "/></g></g><g transform="translate(358.225614, 198.758029)"><g><path d="M 4.859375 -16.0625 L 4.859375 -5.640625 C 4.859375 -4.328125 5.15625 -3.347656 5.75 -2.703125 C 6.351562 -2.066406 7.289062 -1.75 8.5625 -1.75 C 10.238281 -1.75 11.460938 -2.207031 12.234375 -3.125 C 13.015625 -4.039062 13.40625 -5.539062 13.40625 -7.625 L 13.40625 -16.0625 L 15.828125 -16.0625 L 15.828125 0 L 13.828125 0 L 13.484375 -2.15625 L 13.34375 -2.15625 C 12.84375 -1.363281 12.148438 -0.753906 11.265625 -0.328125 C 10.390625 0.0859375 9.382812 0.296875 8.25 0.296875 C 6.289062 0.296875 4.828125 -0.164062 3.859375 -1.09375 C 2.890625 -2.019531 2.40625 -3.503906 2.40625 -5.546875 L 2.40625 -16.0625 Z M 4.859375 -16.0625 "/></g></g></g></svg>